<svg width="24" height="24" viewBox="0 0 24 24" fill="none" xmlns="http://www.w3.org/2000/svg">
<circle cx="12" cy="12" r="12" fill="#2B67E1"/>
<path d="M17.4671 8H6.53088C6.19832 7.99986 5.86898 8.06524 5.56169 8.19241C5.2544 8.31958 4.97517 8.50605 4.73996 8.74116C4.50475 8.97627 4.31817 9.25542 4.19087 9.56265C4.06357 9.86989 3.99805 10.1992 3.99805 10.5318V13.83C3.99861 14.5013 4.26575 15.1449 4.74072 15.6192C5.21568 16.0936 5.8596 16.3599 6.53088 16.3596H14.6379V11.7214C14.6379 11.6925 14.6322 11.6638 14.6211 11.637C14.61 11.6102 14.5937 11.5859 14.5732 11.5654C14.5528 11.5449 14.5284 11.5287 14.5017 11.5176C14.4749 11.5065 14.4462 11.5008 14.4172 11.5008H13.9055C13.8765 11.5008 13.8479 11.5065 13.8211 11.5176C13.7943 11.5287 13.77 11.5449 13.7495 11.5654C13.729 11.5859 13.7127 11.6102 13.7017 11.637C13.6906 11.6638 13.6849 11.6925 13.6849 11.7214L13.6785 15.2958H6.53088C6.14204 15.2958 5.76911 15.1414 5.49406 14.8665C5.219 14.5917 5.06434 14.2188 5.06405 13.83V10.5318C5.06405 10.3392 5.102 10.1485 5.17573 9.9706C5.24946 9.7927 5.35752 9.63106 5.49374 9.49494C5.62997 9.35882 5.79167 9.25087 5.96963 9.17727C6.14759 9.10368 6.33831 9.06587 6.53088 9.06601H17.4671C17.6596 9.06587 17.8503 9.10368 18.0283 9.17727C18.2063 9.25087 18.368 9.35882 18.5042 9.49494C18.6404 9.63106 18.7485 9.7927 18.8222 9.9706C18.8959 10.1485 18.9339 10.3392 18.9339 10.5318V13.83C18.933 14.2185 18.7781 14.5907 18.5031 14.8651C18.2281 15.1395 17.8555 15.2936 17.4671 15.2936H16.95C16.8819 15.2936 16.8166 15.3207 16.7684 15.3689C16.7202 15.4171 16.6931 15.4824 16.6931 15.5505V16.1038C16.6931 16.1375 16.6998 16.1708 16.7127 16.2019C16.7256 16.2331 16.7446 16.2613 16.7684 16.2851C16.7923 16.3088 16.8206 16.3277 16.8518 16.3405C16.883 16.3533 16.9164 16.3598 16.95 16.3596H17.4671C17.7996 16.3598 18.129 16.2944 18.4363 16.1672C18.7435 16.04 19.0228 15.8536 19.258 15.6185C19.4932 15.3834 19.6798 15.1042 19.8071 14.797C19.9344 14.4897 19.9999 14.1604 19.9999 13.8279V10.5318C19.9999 10.1992 19.9344 9.86989 19.8071 9.56265C19.6798 9.25542 19.4932 8.97627 19.258 8.74116C19.0228 8.50605 18.7435 8.31958 18.4363 8.19241C18.129 8.06524 17.7996 7.99986 17.4671 8Z" fill="white"/>
</svg>
